<?xml version="1.0" encoding="utf-8" standalone="no"?>
<!DOCTYPE svg PUBLIC "-//W3C//DTD SVG 1.1//EN"
  "http://www.w3.org/Graphics/SVG/1.1/DTD/svg11.dtd">
<svg xmlns:xlink="http://www.w3.org/1999/xlink" width="676.8pt" height="498.24pt" viewBox="0 0 676.8 498.24" xmlns="http://www.w3.org/2000/svg" version="1.1">
 <metadata>
  <rdf:RDF xmlns:dc="http://purl.org/dc/elements/1.1/" xmlns:cc="http://creativecommons.org/ns#" xmlns:rdf="http://www.w3.org/1999/02/22-rdf-syntax-ns#">
   <cc:Work>
    <dc:type rdf:resource="http://purl.org/dc/dcmitype/StillImage"/>
    <dc:date>2023-02-28T01:00:09.933266</dc:date>
    <dc:format>image/svg+xml</dc:format>
    <dc:creator>
     <cc:Agent>
      <dc:title>Matplotlib v3.6.2, https://matplotlib.org/</dc:title>
     </cc:Agent>
    </dc:creator>
   </cc:Work>
  </rdf:RDF>
 </metadata>
 <defs>
  <style type="text/css">*{stroke-linejoin: round; stroke-linecap: butt}</style>
 </defs>
 <g id="figure_1">
  <g id="patch_1">
   <path d="M 0 498.24 
L 676.8 498.24 
L 676.8 0 
L 0 0 
z
" style="fill: #ffffff"/>
  </g>
  <g id="axes_1">
   <g id="patch_2">
    <path d="M 106.594976 443.4336 
L 587.125024 443.4336 
L 587.125024 59.7888 
L 106.594976 59.7888 
z
" style="fill: #ffffff"/>
   </g>
   <g id="patch_3">
    <path d="M 175.663791 97.770745 
L 163.857156 118.31429 
L 140.243886 118.31429 
L 128.437251 97.770745 
L 140.243886 77.2272 
L 163.857156 77.2272 
L 175.663791 97.770745 
z
" clip-path="url(#p4529d8256a)" style="fill: none; stroke: #d3d3d3; stroke-linejoin: miter"/>
   </g>
   <g id="patch_4">
    <path d="M 175.663791 138.621702 
L 163.857156 159.165247 
L 140.243886 159.165247 
L 128.437251 138.621702 
L 140.243886 118.078157 
L 163.857156 118.078157 
L 175.663791 138.621702 
z
" clip-path="url(#p4529d8256a)" style="fill: none; stroke: #d3d3d3; stroke-linejoin: miter"/>
   </g>
   <g id="patch_5">
    <path d="M 175.663791 179.47266 
L 163.857156 200.016205 
L 140.243886 200.016205 
L 128.437251 179.47266 
L 140.243886 158.929115 
L 163.857156 158.929115 
L 175.663791 179.47266 
z
" clip-path="url(#p4529d8256a)" style="fill: none; stroke: #d3d3d3; stroke-linejoin: miter"/>
   </g>
   <g id="patch_6">
    <path d="M 175.663791 220.323617 
L 163.857156 240.867162 
L 140.243886 240.867162 
L 128.437251 220.323617 
L 140.243886 199.780072 
L 163.857156 199.780072 
L 175.663791 220.323617 
z
" clip-path="url(#p4529d8256a)" style="fill: none; stroke: #d3d3d3; stroke-linejoin: miter"/>
   </g>
   <g id="patch_7">
    <path d="M 175.663791 261.174574 
L 163.857156 281.718119 
L 140.243886 281.718119 
L 128.437251 261.174574 
L 140.243886 240.631029 
L 163.857156 240.631029 
L 175.663791 261.174574 
z
" clip-path="url(#p4529d8256a)" style="fill: none; stroke: #d3d3d3; stroke-linejoin: miter"/>
   </g>
   <g id="patch_8">
    <path d="M 175.663791 302.025532 
L 163.857156 322.569077 
L 140.243886 322.569077 
L 128.437251 302.025532 
L 140.243886 281.481987 
L 163.857156 281.481987 
L 175.663791 302.025532 
z
" clip-path="url(#p4529d8256a)" style="fill: none; stroke: #d3d3d3; stroke-linejoin: miter"/>
   </g>
   <g id="patch_9">
    <path d="M 175.663791 342.876489 
L 163.857156 363.420034 
L 140.243886 363.420034 
L 128.437251 342.876489 
L 140.243886 322.332944 
L 163.857156 322.332944 
L 175.663791 342.876489 
z
" clip-path="url(#p4529d8256a)" style="fill: none; stroke: #d3d3d3; stroke-linejoin: miter"/>
   </g>
   <g id="patch_10">
    <path d="M 175.663791 383.727446 
L 163.857156 404.270991 
L 140.243886 404.270991 
L 128.437251 383.727446 
L 140.243886 363.183901 
L 163.857156 363.183901 
L 175.663791 383.727446 
z
" clip-path="url(#p4529d8256a)" style="fill: none; stroke: #d3d3d3; stroke-linejoin: miter"/>
   </g>
   <g id="patch_11">
    <path d="M 211.083697 118.31429 
L 199.277062 138.857835 
L 175.663791 138.857835 
L 163.857156 118.31429 
L 175.663791 97.770745 
L 199.277062 97.770745 
L 211.083697 118.31429 
z
" clip-path="url(#p4529d8256a)" style="fill: none; stroke: #d3d3d3; stroke-linejoin: miter"/>
   </g>
   <g id="patch_12">
    <path d="M 211.083697 159.165247 
L 199.277062 179.708792 
L 175.663791 179.708792 
L 163.857156 159.165247 
L 175.663791 138.621702 
L 199.277062 138.621702 
L 211.083697 159.165247 
z
" clip-path="url(#p4529d8256a)" style="fill: none; stroke: #d3d3d3; stroke-linejoin: miter"/>
   </g>
   <g id="patch_13">
    <path d="M 211.083697 200.016205 
L 199.277062 220.55975 
L 175.663791 220.55975 
L 163.857156 200.016205 
L 175.663791 179.47266 
L 199.277062 179.47266 
L 211.083697 200.016205 
z
" clip-path="url(#p4529d8256a)" style="fill: none; stroke: #d3d3d3; stroke-linejoin: miter"/>
   </g>
   <g id="patch_14">
    <path d="M 211.083697 240.867162 
L 199.277062 261.410707 
L 175.663791 261.410707 
L 163.857156 240.867162 
L 175.663791 220.323617 
L 199.277062 220.323617 
L 211.083697 240.867162 
z
" clip-path="url(#p4529d8256a)" style="fill: none; stroke: #d3d3d3; stroke-linejoin: miter"/>
   </g>
   <g id="patch_15">
    <path d="M 211.083697 281.718119 
L 199.277062 302.261664 
L 175.663791 302.261664 
L 163.857156 281.718119 
L 175.663791 261.174574 
L 199.277062 261.174574 
L 211.083697 281.718119 
z
" clip-path="url(#p4529d8256a)" style="fill: none; stroke: #d3d3d3; stroke-linejoin: miter"/>
   </g>
   <g id="patch_16">
    <path d="M 211.083697 322.569077 
L 199.277062 343.112622 
L 175.663791 343.112622 
L 163.857156 322.569077 
L 175.663791 302.025532 
L 199.277062 302.025532 
L 211.083697 322.569077 
z
" clip-path="url(#p4529d8256a)" style="fill: none; stroke: #d3d3d3; stroke-linejoin: miter"/>
   </g>
   <g id="patch_17">
    <path d="M 211.083697 363.420034 
L 199.277062 383.963579 
L 175.663791 383.963579 
L 163.857156 363.420034 
L 175.663791 342.876489 
L 199.277062 342.876489 
L 211.083697 363.420034 
z
" clip-path="url(#p4529d8256a)" style="fill: none; stroke: #d3d3d3; stroke-linejoin: miter"/>
   </g>
   <g id="patch_18">
    <path d="M 211.083697 404.270991 
L 199.277062 424.814536 
L 175.663791 424.814536 
L 163.857156 404.270991 
L 175.663791 383.727446 
L 199.277062 383.727446 
L 211.083697 404.270991 
z
" clip-path="url(#p4529d8256a)" style="fill: none; stroke: #d3d3d3; stroke-linejoin: miter"/>
   </g>
   <g id="patch_19">
    <path d="M 246.503602 98.006878 
L 234.696967 118.550423 
L 211.083697 118.550423 
L 199.277062 98.006878 
L 211.083697 77.463333 
L 234.696967 77.463333 
L 246.503602 98.006878 
z
" clip-path="url(#p4529d8256a)" style="fill: none; stroke: #d3d3d3; stroke-linejoin: miter"/>
   </g>
   <g id="patch_20">
    <path d="M 246.503602 138.857835 
L 234.696967 159.40138 
L 211.083697 159.40138 
L 199.277062 138.857835 
L 211.083697 118.31429 
L 234.696967 118.31429 
z
" clip-path="url(#p4529d8256a)" style="fill: #90ee90; stroke: #d3d3d3; stroke-linejoin: miter"/>
   </g>
   <g id="patch_21">
    <path d="M 246.503602 179.708792 
L 234.696967 200.252337 
L 211.083697 200.252337 
L 199.277062 179.708792 
L 211.083697 159.165247 
L 234.696967 159.165247 
z
" clip-path="url(#p4529d8256a)" style="fill: #90ee90; stroke: #d3d3d3; stroke-linejoin: miter"/>
   </g>
   <g id="patch_22">
    <path d="M 246.503602 220.55975 
L 234.696967 241.103295 
L 211.083697 241.103295 
L 199.277062 220.55975 
L 211.083697 200.016205 
L 234.696967 200.016205 
L 246.503602 220.55975 
z
" clip-path="url(#p4529d8256a)" style="fill: none; stroke: #d3d3d3; stroke-linejoin: miter"/>
   </g>
   <g id="patch_23">
    <path d="M 246.503602 261.410707 
L 234.696967 281.954252 
L 211.083697 281.954252 
L 199.277062 261.410707 
L 211.083697 240.867162 
L 234.696967 240.867162 
L 246.503602 261.410707 
z
" clip-path="url(#p4529d8256a)" style="fill: none; stroke: #d3d3d3; stroke-linejoin: miter"/>
   </g>
   <g id="patch_24">
    <path d="M 246.503602 302.261664 
L 234.696967 322.805209 
L 211.083697 322.805209 
L 199.277062 302.261664 
L 211.083697 281.718119 
L 234.696967 281.718119 
L 246.503602 302.261664 
z
" clip-path="url(#p4529d8256a)" style="fill: none; stroke: #d3d3d3; stroke-linejoin: miter"/>
   </g>
   <g id="patch_25">
    <path d="M 246.503602 343.112622 
L 234.696967 363.656167 
L 211.083697 363.656167 
L 199.277062 343.112622 
L 211.083697 322.569077 
L 234.696967 322.569077 
L 246.503602 343.112622 
z
" clip-path="url(#p4529d8256a)" style="fill: none; stroke: #d3d3d3; stroke-linejoin: miter"/>
   </g>
   <g id="patch_26">
    <path d="M 246.503602 383.963579 
L 234.696967 404.507124 
L 211.083697 404.507124 
L 199.277062 383.963579 
L 211.083697 363.420034 
L 234.696967 363.420034 
L 246.503602 383.963579 
z
" clip-path="url(#p4529d8256a)" style="fill: none; stroke: #d3d3d3; stroke-linejoin: miter"/>
   </g>
   <g id="patch_27">
    <path d="M 281.923507 118.550423 
L 270.116872 139.093968 
L 246.503602 139.093968 
L 234.696967 118.550423 
L 246.503602 98.006878 
L 270.116872 98.006878 
z
" clip-path="url(#p4529d8256a)" style="fill: #90ee90; stroke: #d3d3d3; stroke-linejoin: miter"/>
   </g>
   <g id="patch_28">
    <path d="M 281.923507 159.40138 
L 270.116872 179.944925 
L 246.503602 179.944925 
L 234.696967 159.40138 
L 246.503602 138.857835 
L 270.116872 138.857835 
z
" clip-path="url(#p4529d8256a)" style="fill: #90ee90; stroke: #d3d3d3; stroke-linejoin: miter"/>
   </g>
   <g id="patch_29">
    <path d="M 281.923507 200.252337 
L 270.116872 220.795882 
L 246.503602 220.795882 
L 234.696967 200.252337 
L 246.503602 179.708792 
L 270.116872 179.708792 
z
" clip-path="url(#p4529d8256a)" style="fill: #90ee90; stroke: #d3d3d3; stroke-linejoin: miter"/>
   </g>
   <g id="patch_30">
    <path d="M 281.923507 241.103295 
L 270.116872 261.64684 
L 246.503602 261.64684 
L 234.696967 241.103295 
L 246.503602 220.55975 
L 270.116872 220.55975 
L 281.923507 241.103295 
z
" clip-path="url(#p4529d8256a)" style="fill: none; stroke: #d3d3d3; stroke-linejoin: miter"/>
   </g>
   <g id="patch_31">
    <path d="M 281.923507 281.954252 
L 270.116872 302.497797 
L 246.503602 302.497797 
L 234.696967 281.954252 
L 246.503602 261.410707 
L 270.116872 261.410707 
L 281.923507 281.954252 
z
" clip-path="url(#p4529d8256a)" style="fill: none; stroke: #d3d3d3; stroke-linejoin: miter"/>
   </g>
   <g id="patch_32">
    <path d="M 281.923507 322.805209 
L 270.116872 343.348755 
L 246.503602 343.348755 
L 234.696967 322.805209 
L 246.503602 302.261664 
L 270.116872 302.261664 
L 281.923507 322.805209 
z
" clip-path="url(#p4529d8256a)" style="fill: none; stroke: #d3d3d3; stroke-linejoin: miter"/>
   </g>
   <g id="patch_33">
    <path d="M 281.923507 363.656167 
L 270.116872 384.199712 
L 246.503602 384.199712 
L 234.696967 363.656167 
L 246.503602 343.112622 
L 270.116872 343.112622 
L 281.923507 363.656167 
z
" clip-path="url(#p4529d8256a)" style="fill: none; stroke: #d3d3d3; stroke-linejoin: miter"/>
   </g>
   <g id="patch_34">
    <path d="M 281.923507 404.507124 
L 270.116872 425.050669 
L 246.503602 425.050669 
L 234.696967 404.507124 
L 246.503602 383.963579 
L 270.116872 383.963579 
L 281.923507 404.507124 
z
" clip-path="url(#p4529d8256a)" style="fill: none; stroke: #d3d3d3; stroke-linejoin: miter"/>
   </g>
   <g id="patch_35">
    <path d="M 317.343412 98.24301 
L 305.536777 118.786555 
L 281.923507 118.786555 
L 270.116872 98.24301 
L 281.923507 77.699465 
L 305.536777 77.699465 
L 317.343412 98.24301 
z
" clip-path="url(#p4529d8256a)" style="fill: none; stroke: #d3d3d3; stroke-linejoin: miter"/>
   </g>
   <g id="patch_36">
    <path d="M 317.343412 139.093968 
L 305.536777 159.637513 
L 281.923507 159.637513 
L 270.116872 139.093968 
L 281.923507 118.550423 
L 305.536777 118.550423 
z
" clip-path="url(#p4529d8256a)" style="fill: #90ee90; stroke: #d3d3d3; stroke-linejoin: miter"/>
   </g>
   <g id="patch_37">
    <path d="M 317.343412 179.944925 
L 305.536777 200.48847 
L 281.923507 200.48847 
L 270.116872 179.944925 
L 281.923507 159.40138 
L 305.536777 159.40138 
z
" clip-path="url(#p4529d8256a)" style="fill: #90ee90; stroke: #d3d3d3; stroke-linejoin: miter"/>
   </g>
   <g id="patch_38">
    <path d="M 317.343412 220.795882 
L 305.536777 241.339427 
L 281.923507 241.339427 
L 270.116872 220.795882 
L 281.923507 200.252337 
L 305.536777 200.252337 
L 317.343412 220.795882 
z
" clip-path="url(#p4529d8256a)" style="fill: none; stroke: #d3d3d3; stroke-linejoin: miter"/>
   </g>
   <g id="patch_39">
    <path d="M 317.343412 261.64684 
L 305.536777 282.190385 
L 281.923507 282.190385 
L 270.116872 261.64684 
L 281.923507 241.103295 
L 305.536777 241.103295 
L 317.343412 261.64684 
z
" clip-path="url(#p4529d8256a)" style="fill: none; stroke: #d3d3d3; stroke-linejoin: miter"/>
   </g>
   <g id="patch_40">
    <path d="M 317.343412 302.497797 
L 305.536777 323.041342 
L 281.923507 323.041342 
L 270.116872 302.497797 
L 281.923507 281.954252 
L 305.536777 281.954252 
L 317.343412 302.497797 
z
" clip-path="url(#p4529d8256a)" style="fill: none; stroke: #d3d3d3; stroke-linejoin: miter"/>
   </g>
   <g id="patch_41">
    <path d="M 317.343412 343.348755 
L 305.536777 363.8923 
L 281.923507 363.8923 
L 270.116872 343.348755 
L 281.923507 322.805209 
L 305.536777 322.805209 
L 317.343412 343.348755 
z
" clip-path="url(#p4529d8256a)" style="fill: none; stroke: #d3d3d3; stroke-linejoin: miter"/>
   </g>
   <g id="patch_42">
    <path d="M 317.343412 384.199712 
L 305.536777 404.743257 
L 281.923507 404.743257 
L 270.116872 384.199712 
L 281.923507 363.656167 
L 305.536777 363.656167 
L 317.343412 384.199712 
z
" clip-path="url(#p4529d8256a)" style="fill: none; stroke: #d3d3d3; stroke-linejoin: miter"/>
   </g>
   <g id="patch_43">
    <path d="M 352.763318 118.786555 
L 340.956682 139.3301 
L 317.343412 139.3301 
L 305.536777 118.786555 
L 317.343412 98.24301 
L 340.956682 98.24301 
L 352.763318 118.786555 
z
" clip-path="url(#p4529d8256a)" style="fill: none; stroke: #d3d3d3; stroke-linejoin: miter"/>
   </g>
   <g id="patch_44">
    <path d="M 352.763318 159.637513 
L 340.956682 180.181058 
L 317.343412 180.181058 
L 305.536777 159.637513 
L 317.343412 139.093968 
L 340.956682 139.093968 
L 352.763318 159.637513 
z
" clip-path="url(#p4529d8256a)" style="fill: none; stroke: #d3d3d3; stroke-linejoin: miter"/>
   </g>
   <g id="patch_45">
    <path d="M 352.763318 200.48847 
L 340.956682 221.032015 
L 317.343412 221.032015 
L 305.536777 200.48847 
L 317.343412 179.944925 
L 340.956682 179.944925 
L 352.763318 200.48847 
z
" clip-path="url(#p4529d8256a)" style="fill: none; stroke: #d3d3d3; stroke-linejoin: miter"/>
   </g>
   <g id="patch_46">
    <path d="M 352.763318 241.339427 
L 340.956682 261.882973 
L 317.343412 261.882973 
L 305.536777 241.339427 
L 317.343412 220.795882 
L 340.956682 220.795882 
L 352.763318 241.339427 
z
" clip-path="url(#p4529d8256a)" style="fill: none; stroke: #d3d3d3; stroke-linejoin: miter"/>
   </g>
   <g id="patch_47">
    <path d="M 352.763318 282.190385 
L 340.956682 302.73393 
L 317.343412 302.73393 
L 305.536777 282.190385 
L 317.343412 261.64684 
L 340.956682 261.64684 
z
" clip-path="url(#p4529d8256a)" style="fill: #808080; stroke: #d3d3d3; stroke-linejoin: miter"/>
   </g>
   <g id="patch_48">
    <path d="M 352.763318 323.041342 
L 340.956682 343.584887 
L 317.343412 343.584887 
L 305.536777 323.041342 
L 317.343412 302.497797 
L 340.956682 302.497797 
z
" clip-path="url(#p4529d8256a)" style="fill: #808080; stroke: #d3d3d3; stroke-linejoin: miter"/>
   </g>
   <g id="patch_49">
    <path d="M 352.763318 363.8923 
L 340.956682 384.435845 
L 317.343412 384.435845 
L 305.536777 363.8923 
L 317.343412 343.348755 
L 340.956682 343.348755 
z
" clip-path="url(#p4529d8256a)" style="fill: #808080; stroke: #d3d3d3; stroke-linejoin: miter"/>
   </g>
   <g id="patch_50">
    <path d="M 352.763318 404.743257 
L 340.956682 425.286802 
L 317.343412 425.286802 
L 305.536777 404.743257 
L 317.343412 384.199712 
L 340.956682 384.199712 
L 352.763318 404.743257 
z
" clip-path="url(#p4529d8256a)" style="fill: none; stroke: #d3d3d3; stroke-linejoin: miter"/>
   </g>
   <g id="patch_51">
    <path d="M 388.183223 98.479143 
L 376.376588 119.022688 
L 352.763318 119.022688 
L 340.956682 98.479143 
L 352.763318 77.935598 
L 376.376588 77.935598 
L 388.183223 98.479143 
z
" clip-path="url(#p4529d8256a)" style="fill: none; stroke: #d3d3d3; stroke-linejoin: miter"/>
   </g>
   <g id="patch_52">
    <path d="M 388.183223 139.3301 
L 376.376588 159.873645 
L 352.763318 159.873645 
L 340.956682 139.3301 
L 352.763318 118.786555 
L 376.376588 118.786555 
L 388.183223 139.3301 
z
" clip-path="url(#p4529d8256a)" style="fill: none; stroke: #d3d3d3; stroke-linejoin: miter"/>
   </g>
   <g id="patch_53">
    <path d="M 388.183223 180.181058 
L 376.376588 200.724603 
L 352.763318 200.724603 
L 340.956682 180.181058 
L 352.763318 159.637513 
L 376.376588 159.637513 
z
" clip-path="url(#p4529d8256a)" style="fill: #808080; stroke: #d3d3d3; stroke-linejoin: miter"/>
   </g>
   <g id="patch_54">
    <path d="M 388.183223 221.032015 
L 376.376588 241.57556 
L 352.763318 241.57556 
L 340.956682 221.032015 
L 352.763318 200.48847 
L 376.376588 200.48847 
L 388.183223 221.032015 
z
" clip-path="url(#p4529d8256a)" style="fill: none; stroke: #d3d3d3; stroke-linejoin: miter"/>
   </g>
   <g id="patch_55">
    <path d="M 388.183223 261.882973 
L 376.376588 282.426518 
L 352.763318 282.426518 
L 340.956682 261.882973 
L 352.763318 241.339427 
L 376.376588 241.339427 
L 388.183223 261.882973 
z
" clip-path="url(#p4529d8256a)" style="fill: none; stroke: #d3d3d3; stroke-linejoin: miter"/>
   </g>
   <g id="patch_56">
    <path d="M 388.183223 302.73393 
L 376.376588 323.277475 
L 352.763318 323.277475 
L 340.956682 302.73393 
L 352.763318 282.190385 
L 376.376588 282.190385 
z
" clip-path="url(#p4529d8256a)" style="fill: #808080; stroke: #d3d3d3; stroke-linejoin: miter"/>
   </g>
   <g id="patch_57">
    <path d="M 388.183223 343.584887 
L 376.376588 364.128432 
L 352.763318 364.128432 
L 340.956682 343.584887 
L 352.763318 323.041342 
L 376.376588 323.041342 
L 388.183223 343.584887 
z
" clip-path="url(#p4529d8256a)" style="fill: none; stroke: #d3d3d3; stroke-linejoin: miter"/>
   </g>
   <g id="patch_58">
    <path d="M 388.183223 384.435845 
L 376.376588 404.97939 
L 352.763318 404.97939 
L 340.956682 384.435845 
L 352.763318 363.8923 
L 376.376588 363.8923 
L 388.183223 384.435845 
z
" clip-path="url(#p4529d8256a)" style="fill: none; stroke: #d3d3d3; stroke-linejoin: miter"/>
   </g>
   <g id="patch_59">
    <path d="M 423.603128 119.022688 
L 411.796493 139.566233 
L 388.183223 139.566233 
L 376.376588 119.022688 
L 388.183223 98.479143 
L 411.796493 98.479143 
L 423.603128 119.022688 
z
" clip-path="url(#p4529d8256a)" style="fill: none; stroke: #d3d3d3; stroke-linejoin: miter"/>
   </g>
   <g id="patch_60">
    <path d="M 423.603128 159.873645 
L 411.796493 180.417191 
L 388.183223 180.417191 
L 376.376588 159.873645 
L 388.183223 139.3301 
L 411.796493 139.3301 
L 423.603128 159.873645 
z
" clip-path="url(#p4529d8256a)" style="fill: none; stroke: #d3d3d3; stroke-linejoin: miter"/>
   </g>
   <g id="patch_61">
    <path d="M 423.603128 200.724603 
L 411.796493 221.268148 
L 388.183223 221.268148 
L 376.376588 200.724603 
L 388.183223 180.181058 
L 411.796493 180.181058 
z
" clip-path="url(#p4529d8256a)" style="fill: #808080; stroke: #d3d3d3; stroke-linejoin: miter"/>
   </g>
   <g id="patch_62">
    <path d="M 423.603128 241.57556 
L 411.796493 262.119105 
L 388.183223 262.119105 
L 376.376588 241.57556 
L 388.183223 221.032015 
L 411.796493 221.032015 
z
" clip-path="url(#p4529d8256a)" style="fill: #808080; stroke: #d3d3d3; stroke-linejoin: miter"/>
   </g>
   <g id="patch_63">
    <path d="M 423.603128 282.426518 
L 411.796493 302.970063 
L 388.183223 302.970063 
L 376.376588 282.426518 
L 388.183223 261.882973 
L 411.796493 261.882973 
z
" clip-path="url(#p4529d8256a)" style="fill: #808080; stroke: #d3d3d3; stroke-linejoin: miter"/>
   </g>
   <g id="patch_64">
    <path d="M 423.603128 323.277475 
L 411.796493 343.82102 
L 388.183223 343.82102 
L 376.376588 323.277475 
L 388.183223 302.73393 
L 411.796493 302.73393 
L 423.603128 323.277475 
z
" clip-path="url(#p4529d8256a)" style="fill: none; stroke: #d3d3d3; stroke-linejoin: miter"/>
   </g>
   <g id="patch_65">
    <path d="M 423.603128 364.128432 
L 411.796493 384.671977 
L 388.183223 384.671977 
L 376.376588 364.128432 
L 388.183223 343.584887 
L 411.796493 343.584887 
L 423.603128 364.128432 
z
" clip-path="url(#p4529d8256a)" style="fill: none; stroke: #d3d3d3; stroke-linejoin: miter"/>
   </g>
   <g id="patch_66">
    <path d="M 423.603128 404.97939 
L 411.796493 425.522935 
L 388.183223 425.522935 
L 376.376588 404.97939 
L 388.183223 384.435845 
L 411.796493 384.435845 
L 423.603128 404.97939 
z
" clip-path="url(#p4529d8256a)" style="fill: none; stroke: #d3d3d3; stroke-linejoin: miter"/>
   </g>
   <g id="patch_67">
    <path d="M 459.023033 98.715276 
L 447.216398 119.258821 
L 423.603128 119.258821 
L 411.796493 98.715276 
L 423.603128 78.171731 
L 447.216398 78.171731 
L 459.023033 98.715276 
z
" clip-path="url(#p4529d8256a)" style="fill: none; stroke: #d3d3d3; stroke-linejoin: miter"/>
   </g>
   <g id="patch_68">
    <path d="M 459.023033 139.566233 
L 447.216398 160.109778 
L 423.603128 160.109778 
L 411.796493 139.566233 
L 423.603128 119.022688 
L 447.216398 119.022688 
L 459.023033 139.566233 
z
" clip-path="url(#p4529d8256a)" style="fill: none; stroke: #d3d3d3; stroke-linejoin: miter"/>
   </g>
   <g id="patch_69">
    <path d="M 459.023033 180.417191 
L 447.216398 200.960736 
L 423.603128 200.960736 
L 411.796493 180.417191 
L 423.603128 159.873645 
L 447.216398 159.873645 
L 459.023033 180.417191 
z
" clip-path="url(#p4529d8256a)" style="fill: none; stroke: #d3d3d3; stroke-linejoin: miter"/>
   </g>
   <g id="patch_70">
    <path d="M 459.023033 221.268148 
L 447.216398 241.811693 
L 423.603128 241.811693 
L 411.796493 221.268148 
L 423.603128 200.724603 
L 447.216398 200.724603 
L 459.023033 221.268148 
z
" clip-path="url(#p4529d8256a)" style="fill: none; stroke: #d3d3d3; stroke-linejoin: miter"/>
   </g>
   <g id="patch_71">
    <path d="M 459.023033 262.119105 
L 447.216398 282.66265 
L 423.603128 282.66265 
L 411.796493 262.119105 
L 423.603128 241.57556 
L 447.216398 241.57556 
L 459.023033 262.119105 
z
" clip-path="url(#p4529d8256a)" style="fill: none; stroke: #d3d3d3; stroke-linejoin: miter"/>
   </g>
   <g id="patch_72">
    <path d="M 459.023033 302.970063 
L 447.216398 323.513608 
L 423.603128 323.513608 
L 411.796493 302.970063 
L 423.603128 282.426518 
L 447.216398 282.426518 
L 459.023033 302.970063 
z
" clip-path="url(#p4529d8256a)" style="fill: none; stroke: #d3d3d3; stroke-linejoin: miter"/>
   </g>
   <g id="patch_73">
    <path d="M 459.023033 343.82102 
L 447.216398 364.364565 
L 423.603128 364.364565 
L 411.796493 343.82102 
L 423.603128 323.277475 
L 447.216398 323.277475 
L 459.023033 343.82102 
z
" clip-path="url(#p4529d8256a)" style="fill: none; stroke: #d3d3d3; stroke-linejoin: miter"/>
   </g>
   <g id="patch_74">
    <path d="M 459.023033 384.671977 
L 447.216398 405.215522 
L 423.603128 405.215522 
L 411.796493 384.671977 
L 423.603128 364.128432 
L 447.216398 364.128432 
L 459.023033 384.671977 
z
" clip-path="url(#p4529d8256a)" style="fill: none; stroke: #d3d3d3; stroke-linejoin: miter"/>
   </g>
   <g id="patch_75">
    <path d="M 494.442938 119.258821 
L 482.636303 139.802366 
L 459.023033 139.802366 
L 447.216398 119.258821 
L 459.023033 98.715276 
L 482.636303 98.715276 
L 494.442938 119.258821 
z
" clip-path="url(#p4529d8256a)" style="fill: none; stroke: #d3d3d3; stroke-linejoin: miter"/>
   </g>
   <g id="patch_76">
    <path d="M 494.442938 160.109778 
L 482.636303 180.653323 
L 459.023033 180.653323 
L 447.216398 160.109778 
L 459.023033 139.566233 
L 482.636303 139.566233 
L 494.442938 160.109778 
z
" clip-path="url(#p4529d8256a)" style="fill: none; stroke: #d3d3d3; stroke-linejoin: miter"/>
   </g>
   <g id="patch_77">
    <path d="M 494.442938 200.960736 
L 482.636303 221.504281 
L 459.023033 221.504281 
L 447.216398 200.960736 
L 459.023033 180.417191 
L 482.636303 180.417191 
L 494.442938 200.960736 
z
" clip-path="url(#p4529d8256a)" style="fill: none; stroke: #d3d3d3; stroke-linejoin: miter"/>
   </g>
   <g id="patch_78">
    <path d="M 494.442938 241.811693 
L 482.636303 262.355238 
L 459.023033 262.355238 
L 447.216398 241.811693 
L 459.023033 221.268148 
L 482.636303 221.268148 
L 494.442938 241.811693 
z
" clip-path="url(#p4529d8256a)" style="fill: none; stroke: #d3d3d3; stroke-linejoin: miter"/>
   </g>
   <g id="patch_79">
    <path d="M 494.442938 282.66265 
L 482.636303 303.206195 
L 459.023033 303.206195 
L 447.216398 282.66265 
L 459.023033 262.119105 
L 482.636303 262.119105 
L 494.442938 282.66265 
z
" clip-path="url(#p4529d8256a)" style="fill: none; stroke: #d3d3d3; stroke-linejoin: miter"/>
   </g>
   <g id="patch_80">
    <path d="M 494.442938 323.513608 
L 482.636303 344.057153 
L 459.023033 344.057153 
L 447.216398 323.513608 
L 459.023033 302.970063 
L 482.636303 302.970063 
L 494.442938 323.513608 
z
" clip-path="url(#p4529d8256a)" style="fill: none; stroke: #d3d3d3; stroke-linejoin: miter"/>
   </g>
   <g id="patch_81">
    <path d="M 494.442938 364.364565 
L 482.636303 384.90811 
L 459.023033 384.90811 
L 447.216398 364.364565 
L 459.023033 343.82102 
L 482.636303 343.82102 
L 494.442938 364.364565 
z
" clip-path="url(#p4529d8256a)" style="fill: none; stroke: #d3d3d3; stroke-linejoin: miter"/>
   </g>
   <g id="patch_82">
    <path d="M 494.442938 405.215522 
L 482.636303 425.759067 
L 459.023033 425.759067 
L 447.216398 405.215522 
L 459.023033 384.671977 
L 482.636303 384.671977 
L 494.442938 405.215522 
z
" clip-path="url(#p4529d8256a)" style="fill: none; stroke: #d3d3d3; stroke-linejoin: miter"/>
   </g>
   <g id="patch_83">
    <path d="M 529.862844 98.951409 
L 518.056209 119.494954 
L 494.442938 119.494954 
L 482.636303 98.951409 
L 494.442938 78.407864 
L 518.056209 78.407864 
L 529.862844 98.951409 
z
" clip-path="url(#p4529d8256a)" style="fill: none; stroke: #d3d3d3; stroke-linejoin: miter"/>
   </g>
   <g id="patch_84">
    <path d="M 529.862844 139.802366 
L 518.056209 160.345911 
L 494.442938 160.345911 
L 482.636303 139.802366 
L 494.442938 119.258821 
L 518.056209 119.258821 
L 529.862844 139.802366 
z
" clip-path="url(#p4529d8256a)" style="fill: none; stroke: #d3d3d3; stroke-linejoin: miter"/>
   </g>
   <g id="patch_85">
    <path d="M 529.862844 180.653323 
L 518.056209 201.196868 
L 494.442938 201.196868 
L 482.636303 180.653323 
L 494.442938 160.109778 
L 518.056209 160.109778 
L 529.862844 180.653323 
z
" clip-path="url(#p4529d8256a)" style="fill: none; stroke: #d3d3d3; stroke-linejoin: miter"/>
   </g>
   <g id="patch_86">
    <path d="M 529.862844 221.504281 
L 518.056209 242.047826 
L 494.442938 242.047826 
L 482.636303 221.504281 
L 494.442938 200.960736 
L 518.056209 200.960736 
L 529.862844 221.504281 
z
" clip-path="url(#p4529d8256a)" style="fill: none; stroke: #d3d3d3; stroke-linejoin: miter"/>
   </g>
   <g id="patch_87">
    <path d="M 529.862844 262.355238 
L 518.056209 282.898783 
L 494.442938 282.898783 
L 482.636303 262.355238 
L 494.442938 241.811693 
L 518.056209 241.811693 
L 529.862844 262.355238 
z
" clip-path="url(#p4529d8256a)" style="fill: none; stroke: #d3d3d3; stroke-linejoin: miter"/>
   </g>
   <g id="patch_88">
    <path d="M 529.862844 303.206195 
L 518.056209 323.74974 
L 494.442938 323.74974 
L 482.636303 303.206195 
L 494.442938 282.66265 
L 518.056209 282.66265 
L 529.862844 303.206195 
z
" clip-path="url(#p4529d8256a)" style="fill: none; stroke: #d3d3d3; stroke-linejoin: miter"/>
   </g>
   <g id="patch_89">
    <path d="M 529.862844 344.057153 
L 518.056209 364.600698 
L 494.442938 364.600698 
L 482.636303 344.057153 
L 494.442938 323.513608 
L 518.056209 323.513608 
L 529.862844 344.057153 
z
" clip-path="url(#p4529d8256a)" style="fill: none; stroke: #d3d3d3; stroke-linejoin: miter"/>
   </g>
   <g id="patch_90">
    <path d="M 529.862844 384.90811 
L 518.056209 405.451655 
L 494.442938 405.451655 
L 482.636303 384.90811 
L 494.442938 364.364565 
L 518.056209 364.364565 
L 529.862844 384.90811 
z
" clip-path="url(#p4529d8256a)" style="fill: none; stroke: #d3d3d3; stroke-linejoin: miter"/>
   </g>
   <g id="patch_91">
    <path d="M 565.282749 119.494954 
L 553.476114 140.038499 
L 529.862844 140.038499 
L 518.056209 119.494954 
L 529.862844 98.951409 
L 553.476114 98.951409 
L 565.282749 119.494954 
z
" clip-path="url(#p4529d8256a)" style="fill: none; stroke: #d3d3d3; stroke-linejoin: miter"/>
   </g>
   <g id="patch_92">
    <path d="M 565.282749 160.345911 
L 553.476114 180.889456 
L 529.862844 180.889456 
L 518.056209 160.345911 
L 529.862844 139.802366 
L 553.476114 139.802366 
L 565.282749 160.345911 
z
" clip-path="url(#p4529d8256a)" style="fill: none; stroke: #d3d3d3; stroke-linejoin: miter"/>
   </g>
   <g id="patch_93">
    <path d="M 565.282749 201.196868 
L 553.476114 221.740413 
L 529.862844 221.740413 
L 518.056209 201.196868 
L 529.862844 180.653323 
L 553.476114 180.653323 
L 565.282749 201.196868 
z
" clip-path="url(#p4529d8256a)" style="fill: none; stroke: #d3d3d3; stroke-linejoin: miter"/>
   </g>
   <g id="patch_94">
    <path d="M 565.282749 242.047826 
L 553.476114 262.591371 
L 529.862844 262.591371 
L 518.056209 242.047826 
L 529.862844 221.504281 
L 553.476114 221.504281 
L 565.282749 242.047826 
z
" clip-path="url(#p4529d8256a)" style="fill: none; stroke: #d3d3d3; stroke-linejoin: miter"/>
   </g>
   <g id="patch_95">
    <path d="M 565.282749 282.898783 
L 553.476114 303.442328 
L 529.862844 303.442328 
L 518.056209 282.898783 
L 529.862844 262.355238 
L 553.476114 262.355238 
L 565.282749 282.898783 
z
" clip-path="url(#p4529d8256a)" style="fill: none; stroke: #d3d3d3; stroke-linejoin: miter"/>
   </g>
   <g id="patch_96">
    <path d="M 565.282749 323.74974 
L 553.476114 344.293285 
L 529.862844 344.293285 
L 518.056209 323.74974 
L 529.862844 303.206195 
L 553.476114 303.206195 
L 565.282749 323.74974 
z
" clip-path="url(#p4529d8256a)" style="fill: none; stroke: #d3d3d3; stroke-linejoin: miter"/>
   </g>
   <g id="patch_97">
    <path d="M 565.282749 364.600698 
L 553.476114 385.144243 
L 529.862844 385.144243 
L 518.056209 364.600698 
L 529.862844 344.057153 
L 553.476114 344.057153 
L 565.282749 364.600698 
z
" clip-path="url(#p4529d8256a)" style="fill: none; stroke: #d3d3d3; stroke-linejoin: miter"/>
   </g>
   <g id="patch_98">
    <path d="M 565.282749 405.451655 
L 553.476114 425.9952 
L 529.862844 425.9952 
L 518.056209 405.451655 
L 529.862844 384.90811 
L 553.476114 384.90811 
L 565.282749 405.451655 
z
" clip-path="url(#p4529d8256a)" style="fill: none; stroke: #d3d3d3; stroke-linejoin: miter"/>
   </g>
   <g id="patch_99">
    <path d="M 175.663791 97.770745 
L 163.857156 118.31429 
L 140.243886 118.31429 
L 128.437251 97.770745 
L 140.243886 77.2272 
L 163.857156 77.2272 
z
" clip-path="url(#p4529d8256a)" style="fill: #add8e6; stroke: #808080; stroke-linejoin: miter"/>
   </g>
   <g id="patch_100">
    <path d="M 565.282749 405.451655 
L 553.476114 425.9952 
L 529.862844 425.9952 
L 518.056209 405.451655 
L 529.862844 384.90811 
L 553.476114 384.90811 
z
" clip-path="url(#p4529d8256a)" style="fill: #ffa500; stroke: #808080; stroke-linejoin: miter"/>
   </g>
   <g id="patch_101">
    <path d="M 175.41028 111.319405 
L 167.995564 102.924231 
L 166.810844 104.966852 
L 159.726863 100.858143 
L 158.542142 102.900765 
L 165.626123 107.009474 
L 164.441403 109.052095 
L 175.41028 111.319405 
z
" clip-path="url(#p4529d8256a)" style="fill: none; stroke: #ff8c00; stroke-linejoin: miter"/>
   </g>
   <g id="patch_102">
    <path d="M 187.470427 145.280645 
L 191.012417 134.654673 
L 188.65109 134.654673 
L 188.65109 126.484482 
L 186.289763 126.484482 
L 186.289763 134.654673 
L 183.928436 134.654673 
L 187.470427 145.280645 
z
" clip-path="url(#p4529d8256a)" style="fill: none; stroke: #ff8c00; stroke-linejoin: miter"/>
   </g>
   <g id="patch_103">
    <path d="M 187.470427 186.131602 
L 191.012417 175.50563 
L 188.65109 175.50563 
L 188.65109 167.335439 
L 186.289763 167.335439 
L 186.289763 175.50563 
L 183.928436 175.50563 
L 187.470427 186.131602 
z
" clip-path="url(#p4529d8256a)" style="fill: none; stroke: #ff8c00; stroke-linejoin: miter"/>
   </g>
   <g id="patch_104">
    <path d="M 187.470427 226.982559 
L 191.012417 216.356588 
L 188.65109 216.356588 
L 188.65109 208.186396 
L 186.289763 208.186396 
L 186.289763 216.356588 
L 183.928436 216.356588 
L 187.470427 226.982559 
z
" clip-path="url(#p4529d8256a)" style="fill: none; stroke: #ff8c00; stroke-linejoin: miter"/>
   </g>
   <g id="patch_105">
    <path d="M 210.830185 254.415822 
L 203.415469 246.020648 
L 202.230749 248.063269 
L 195.146768 243.95456 
L 193.962047 245.997182 
L 201.046028 250.105891 
L 199.861308 252.148512 
L 210.830185 254.415822 
z
" clip-path="url(#p4529d8256a)" style="fill: none; stroke: #ff8c00; stroke-linejoin: miter"/>
   </g>
   <g id="patch_106">
    <path d="M 222.890332 288.377062 
L 226.432322 277.75109 
L 224.070995 277.75109 
L 224.070995 269.580899 
L 221.709668 269.580899 
L 221.709668 277.75109 
L 219.348341 277.75109 
L 222.890332 288.377062 
z
" clip-path="url(#p4529d8256a)" style="fill: none; stroke: #ff8c00; stroke-linejoin: miter"/>
   </g>
   <g id="patch_107">
    <path d="M 246.250091 315.810325 
L 238.835375 307.41515 
L 237.650654 309.457772 
L 230.566673 305.349063 
L 229.381953 307.391684 
L 236.465934 311.500393 
L 235.281213 313.543015 
L 246.250091 315.810325 
z
" clip-path="url(#p4529d8256a)" style="fill: none; stroke: #ff8c00; stroke-linejoin: miter"/>
   </g>
   <g id="patch_108">
    <path d="M 281.669996 336.35387 
L 274.25528 327.958695 
L 273.070559 330.001317 
L 265.986578 325.892608 
L 264.801858 327.935229 
L 271.885839 332.043938 
L 270.701118 334.08656 
L 281.669996 336.35387 
z
" clip-path="url(#p4529d8256a)" style="fill: none; stroke: #ff8c00; stroke-linejoin: miter"/>
   </g>
   <g id="patch_109">
    <path d="M 293.730142 370.315109 
L 297.272133 359.689137 
L 294.910806 359.689137 
L 294.910806 351.518946 
L 292.549479 351.518946 
L 292.549479 359.689137 
L 290.188152 359.689137 
L 293.730142 370.315109 
z
" clip-path="url(#p4529d8256a)" style="fill: none; stroke: #ff8c00; stroke-linejoin: miter"/>
   </g>
   <g id="patch_110">
    <path d="M 317.089901 397.748372 
L 309.675185 389.353198 
L 308.490465 391.395819 
L 301.406483 387.28711 
L 300.221763 389.329732 
L 307.305744 393.438441 
L 306.121024 395.481062 
L 317.089901 397.748372 
z
" clip-path="url(#p4529d8256a)" style="fill: none; stroke: #ff8c00; stroke-linejoin: miter"/>
   </g>
   <g id="patch_111">
    <path d="M 352.536363 391.335103 
L 341.55628 393.547507 
L 342.730766 395.59603 
L 335.646785 399.657513 
L 336.821272 401.706036 
L 343.905253 397.644553 
L 345.079739 399.693076 
L 352.536363 391.335103 
z
" clip-path="url(#p4529d8256a)" style="fill: none; stroke: #ff8c00; stroke-linejoin: miter"/>
   </g>
   <g id="patch_112">
    <path d="M 387.929712 397.984505 
L 380.514995 389.58933 
L 379.330275 391.631952 
L 372.246294 387.523243 
L 371.061573 389.565864 
L 378.145554 393.674573 
L 376.960834 395.717195 
L 387.929712 397.984505 
z
" clip-path="url(#p4529d8256a)" style="fill: none; stroke: #ff8c00; stroke-linejoin: miter"/>
   </g>
   <g id="patch_113">
    <path d="M 423.376174 391.571235 
L 412.39609 393.78364 
L 413.570577 395.832163 
L 406.486596 399.893646 
L 407.661082 401.942169 
L 414.745063 397.880686 
L 415.91955 399.929209 
L 423.376174 391.571235 
z
" clip-path="url(#p4529d8256a)" style="fill: none; stroke: #ff8c00; stroke-linejoin: miter"/>
   </g>
   <g id="patch_114">
    <path d="M 458.769522 398.220637 
L 451.354806 389.825463 
L 450.170085 391.868085 
L 443.086104 387.759375 
L 441.901384 389.801997 
L 448.985365 393.910706 
L 447.800644 395.953328 
L 458.769522 398.220637 
z
" clip-path="url(#p4529d8256a)" style="fill: none; stroke: #ff8c00; stroke-linejoin: miter"/>
   </g>
   <g id="patch_115">
    <path d="M 494.215984 391.807368 
L 483.235901 394.019773 
L 484.410387 396.068296 
L 477.326406 400.129778 
L 478.500893 402.178301 
L 485.584874 398.116819 
L 486.75936 400.165342 
L 494.215984 391.807368 
z
" clip-path="url(#p4529d8256a)" style="fill: none; stroke: #ff8c00; stroke-linejoin: miter"/>
   </g>
   <g id="patch_116">
    <path d="M 529.609332 398.45677 
L 522.194616 390.061596 
L 521.009896 392.104217 
L 513.925915 387.995508 
L 512.741194 390.03813 
L 519.825175 394.146839 
L 518.640455 396.18946 
L 529.609332 398.45677 
z
" clip-path="url(#p4529d8256a)" style="fill: none; stroke: #ff8c00; stroke-linejoin: miter"/>
   </g>
   <g id="patch_117">
    <path d="M 175.41028 111.319405 
L 167.995564 102.924231 
L 166.810844 104.966852 
L 159.726863 100.858143 
L 158.542142 102.900765 
L 165.626123 107.009474 
L 164.441403 109.052095 
L 175.41028 111.319405 
z
" clip-path="url(#p4529d8256a)" style="fill: none; stroke: #00008b; stroke-linejoin: miter"/>
   </g>
   <g id="patch_118">
    <path d="M 187.470427 145.280645 
L 191.012417 134.654673 
L 188.65109 134.654673 
L 188.65109 126.484482 
L 186.289763 126.484482 
L 186.289763 134.654673 
L 183.928436 134.654673 
L 187.470427 145.280645 
z
" clip-path="url(#p4529d8256a)" style="fill: none; stroke: #00008b; stroke-linejoin: miter"/>
   </g>
   <g id="patch_119">
    <path d="M 187.470427 186.131602 
L 191.012417 175.50563 
L 188.65109 175.50563 
L 188.65109 167.335439 
L 186.289763 167.335439 
L 186.289763 175.50563 
L 183.928436 175.50563 
L 187.470427 186.131602 
z
" clip-path="url(#p4529d8256a)" style="fill: none; stroke: #00008b; stroke-linejoin: miter"/>
   </g>
   <g id="patch_120">
    <path d="M 210.830185 213.564865 
L 203.415469 205.16969 
L 202.230749 207.212312 
L 195.146768 203.103603 
L 193.962047 205.146225 
L 201.046028 209.254934 
L 199.861308 211.297555 
L 210.830185 213.564865 
z
" clip-path="url(#p4529d8256a)" style="fill: none; stroke: #00008b; stroke-linejoin: miter"/>
   </g>
   <g id="patch_121">
    <path d="M 246.250091 234.10841 
L 238.835375 225.713235 
L 237.650654 227.755857 
L 230.566673 223.647148 
L 229.381953 225.68977 
L 236.465934 229.798479 
L 235.281213 231.8411 
L 246.250091 234.10841 
z
" clip-path="url(#p4529d8256a)" style="fill: none; stroke: #00008b; stroke-linejoin: miter"/>
   </g>
   <g id="patch_122">
    <path d="M 281.669996 254.651955 
L 274.25528 246.256781 
L 273.070559 248.299402 
L 265.986578 244.190693 
L 264.801858 246.233315 
L 271.885839 250.342024 
L 270.701118 252.384645 
L 281.669996 254.651955 
z
" clip-path="url(#p4529d8256a)" style="fill: none; stroke: #00008b; stroke-linejoin: miter"/>
   </g>
   <g id="patch_123">
    <path d="M 293.730142 288.613194 
L 297.272133 277.987223 
L 294.910806 277.987223 
L 294.910806 269.817031 
L 292.549479 269.817031 
L 292.549479 277.987223 
L 290.188152 277.987223 
L 293.730142 288.613194 
z
" clip-path="url(#p4529d8256a)" style="fill: none; stroke: #00008b; stroke-linejoin: miter"/>
   </g>
   <g id="patch_124">
    <path d="M 293.730142 329.464152 
L 297.272133 318.83818 
L 294.910806 318.83818 
L 294.910806 310.667989 
L 292.549479 310.667989 
L 292.549479 318.83818 
L 290.188152 318.83818 
L 293.730142 329.464152 
z
" clip-path="url(#p4529d8256a)" style="fill: none; stroke: #00008b; stroke-linejoin: miter"/>
   </g>
   <g id="patch_125">
    <path d="M 293.730142 370.315109 
L 297.272133 359.689137 
L 294.910806 359.689137 
L 294.910806 351.518946 
L 292.549479 351.518946 
L 292.549479 359.689137 
L 290.188152 359.689137 
L 293.730142 370.315109 
z
" clip-path="url(#p4529d8256a)" style="fill: none; stroke: #00008b; stroke-linejoin: miter"/>
   </g>
   <g id="patch_126">
    <path d="M 317.089901 397.748372 
L 309.675185 389.353198 
L 308.490465 391.395819 
L 301.406483 387.28711 
L 300.221763 389.329732 
L 307.305744 393.438441 
L 306.121024 395.481062 
L 317.089901 397.748372 
z
" clip-path="url(#p4529d8256a)" style="fill: none; stroke: #00008b; stroke-linejoin: miter"/>
   </g>
   <g id="patch_127">
    <path d="M 352.536363 391.335103 
L 341.55628 393.547507 
L 342.730766 395.59603 
L 335.646785 399.657513 
L 336.821272 401.706036 
L 343.905253 397.644553 
L 345.079739 399.693076 
L 352.536363 391.335103 
z
" clip-path="url(#p4529d8256a)" style="fill: none; stroke: #00008b; stroke-linejoin: miter"/>
   </g>
   <g id="patch_128">
    <path d="M 387.929712 397.984505 
L 380.514995 389.58933 
L 379.330275 391.631952 
L 372.246294 387.523243 
L 371.061573 389.565864 
L 378.145554 393.674573 
L 376.960834 395.717195 
L 387.929712 397.984505 
z
" clip-path="url(#p4529d8256a)" style="fill: none; stroke: #00008b; stroke-linejoin: miter"/>
   </g>
   <g id="patch_129">
    <path d="M 423.376174 391.571235 
L 412.39609 393.78364 
L 413.570577 395.832163 
L 406.486596 399.893646 
L 407.661082 401.942169 
L 414.745063 397.880686 
L 415.91955 399.929209 
L 423.376174 391.571235 
z
" clip-path="url(#p4529d8256a)" style="fill: none; stroke: #00008b; stroke-linejoin: miter"/>
   </g>
   <g id="patch_130">
    <path d="M 458.769522 398.220637 
L 451.354806 389.825463 
L 450.170085 391.868085 
L 443.086104 387.759375 
L 441.901384 389.801997 
L 448.985365 393.910706 
L 447.800644 395.953328 
L 458.769522 398.220637 
z
" clip-path="url(#p4529d8256a)" style="fill: none; stroke: #00008b; stroke-linejoin: miter"/>
   </g>
   <g id="patch_131">
    <path d="M 494.215984 391.807368 
L 483.235901 394.019773 
L 484.410387 396.068296 
L 477.326406 400.129778 
L 478.500893 402.178301 
L 485.584874 398.116819 
L 486.75936 400.165342 
L 494.215984 391.807368 
z
" clip-path="url(#p4529d8256a)" style="fill: none; stroke: #00008b; stroke-linejoin: miter"/>
   </g>
   <g id="patch_132">
    <path d="M 529.609332 398.45677 
L 522.194616 390.061596 
L 521.009896 392.104217 
L 513.925915 387.995508 
L 512.741194 390.03813 
L 519.825175 394.146839 
L 518.640455 396.18946 
L 529.609332 398.45677 
z
" clip-path="url(#p4529d8256a)" style="fill: none; stroke: #00008b; stroke-linejoin: miter"/>
   </g>
   <g id="patch_133">
    <path d="M 175.41028 111.319405 
L 167.995564 102.924231 
L 166.810844 104.966852 
L 159.726863 100.858143 
L 158.542142 102.900765 
L 165.626123 107.009474 
L 164.441403 109.052095 
L 175.41028 111.319405 
z
" clip-path="url(#p4529d8256a)" style="fill: none; stroke: #008000; stroke-linejoin: miter"/>
   </g>
   <g id="patch_134">
    <path d="M 210.830185 131.86295 
L 203.415469 123.467776 
L 202.230749 125.510397 
L 195.146768 121.401688 
L 193.962047 123.44431 
L 201.046028 127.553019 
L 199.861308 129.59564 
L 210.830185 131.86295 
z
" clip-path="url(#p4529d8256a)" style="fill: none; stroke: #008000; stroke-linejoin: miter"/>
   </g>
   <g id="patch_135">
    <path d="M 246.250091 152.406495 
L 238.835375 144.011321 
L 237.650654 146.053942 
L 230.566673 141.945233 
L 229.381953 143.987855 
L 236.465934 148.096564 
L 235.281213 150.139185 
L 246.250091 152.406495 
z
" clip-path="url(#p4529d8256a)" style="fill: none; stroke: #008000; stroke-linejoin: miter"/>
   </g>
   <g id="patch_136">
    <path d="M 281.669996 172.95004 
L 274.25528 164.554866 
L 273.070559 166.597487 
L 265.986578 162.488778 
L 264.801858 164.5314 
L 271.885839 168.640109 
L 270.701118 170.68273 
L 281.669996 172.95004 
z
" clip-path="url(#p4529d8256a)" style="fill: none; stroke: #008000; stroke-linejoin: miter"/>
   </g>
   <g id="patch_137">
    <path d="M 317.089901 193.493585 
L 309.675185 185.098411 
L 308.490465 187.141032 
L 301.406483 183.032323 
L 300.221763 185.074945 
L 307.305744 189.183654 
L 306.121024 191.226275 
L 317.089901 193.493585 
z
" clip-path="url(#p4529d8256a)" style="fill: none; stroke: #008000; stroke-linejoin: miter"/>
   </g>
   <g id="patch_138">
    <path d="M 329.150047 227.454825 
L 332.692038 216.828853 
L 330.330711 216.828853 
L 330.330711 208.658662 
L 327.969384 208.658662 
L 327.969384 216.828853 
L 325.608057 216.828853 
L 329.150047 227.454825 
z
" clip-path="url(#p4529d8256a)" style="fill: none; stroke: #008000; stroke-linejoin: miter"/>
   </g>
   <g id="patch_139">
    <path d="M 305.763732 254.747582 
L 316.743815 252.535177 
L 315.569329 250.486654 
L 322.65331 246.425171 
L 321.478823 244.376648 
L 314.394842 248.438131 
L 313.220355 246.389608 
L 305.763732 254.747582 
z
" clip-path="url(#p4529d8256a)" style="fill: none; stroke: #008000; stroke-linejoin: miter"/>
   </g>
   <g id="patch_140">
    <path d="M 293.730142 288.613194 
L 297.272133 277.987223 
L 294.910806 277.987223 
L 294.910806 269.817031 
L 292.549479 269.817031 
L 292.549479 277.987223 
L 290.188152 277.987223 
L 293.730142 288.613194 
z
" clip-path="url(#p4529d8256a)" style="fill: none; stroke: #008000; stroke-linejoin: miter"/>
   </g>
   <g id="patch_141">
    <path d="M 293.730142 329.464152 
L 297.272133 318.83818 
L 294.910806 318.83818 
L 294.910806 310.667989 
L 292.549479 310.667989 
L 292.549479 318.83818 
L 290.188152 318.83818 
L 293.730142 329.464152 
z
" clip-path="url(#p4529d8256a)" style="fill: none; stroke: #008000; stroke-linejoin: miter"/>
   </g>
   <g id="patch_142">
    <path d="M 293.730142 370.315109 
L 297.272133 359.689137 
L 294.910806 359.689137 
L 294.910806 351.518946 
L 292.549479 351.518946 
L 292.549479 359.689137 
L 290.188152 359.689137 
L 293.730142 370.315109 
z
" clip-path="url(#p4529d8256a)" style="fill: none; stroke: #008000; stroke-linejoin: miter"/>
   </g>
   <g id="patch_143">
    <path d="M 317.089901 397.748372 
L 309.675185 389.353198 
L 308.490465 391.395819 
L 301.406483 387.28711 
L 300.221763 389.329732 
L 307.305744 393.438441 
L 306.121024 395.481062 
L 317.089901 397.748372 
z
" clip-path="url(#p4529d8256a)" style="fill: none; stroke: #008000; stroke-linejoin: miter"/>
   </g>
   <g id="patch_144">
    <path d="M 352.536363 391.335103 
L 341.55628 393.547507 
L 342.730766 395.59603 
L 335.646785 399.657513 
L 336.821272 401.706036 
L 343.905253 397.644553 
L 345.079739 399.693076 
L 352.536363 391.335103 
z
" clip-path="url(#p4529d8256a)" style="fill: none; stroke: #008000; stroke-linejoin: miter"/>
   </g>
   <g id="patch_145">
    <path d="M 387.929712 397.984505 
L 380.514995 389.58933 
L 379.330275 391.631952 
L 372.246294 387.523243 
L 371.061573 389.565864 
L 378.145554 393.674573 
L 376.960834 395.717195 
L 387.929712 397.984505 
z
" clip-path="url(#p4529d8256a)" style="fill: none; stroke: #008000; stroke-linejoin: miter"/>
   </g>
   <g id="patch_146">
    <path d="M 423.376174 391.571235 
L 412.39609 393.78364 
L 413.570577 395.832163 
L 406.486596 399.893646 
L 407.661082 401.942169 
L 414.745063 397.880686 
L 415.91955 399.929209 
L 423.376174 391.571235 
z
" clip-path="url(#p4529d8256a)" style="fill: none; stroke: #008000; stroke-linejoin: miter"/>
   </g>
   <g id="patch_147">
    <path d="M 458.769522 398.220637 
L 451.354806 389.825463 
L 450.170085 391.868085 
L 443.086104 387.759375 
L 441.901384 389.801997 
L 448.985365 393.910706 
L 447.800644 395.953328 
L 458.769522 398.220637 
z
" clip-path="url(#p4529d8256a)" style="fill: none; stroke: #008000; stroke-linejoin: miter"/>
   </g>
   <g id="patch_148">
    <path d="M 494.215984 391.807368 
L 483.235901 394.019773 
L 484.410387 396.068296 
L 477.326406 400.129778 
L 478.500893 402.178301 
L 485.584874 398.116819 
L 486.75936 400.165342 
L 494.215984 391.807368 
z
" clip-path="url(#p4529d8256a)" style="fill: none; stroke: #008000; stroke-linejoin: miter"/>
   </g>
   <g id="patch_149">
    <path d="M 529.609332 398.45677 
L 522.194616 390.061596 
L 521.009896 392.104217 
L 513.925915 387.995508 
L 512.741194 390.03813 
L 519.825175 394.146839 
L 518.640455 396.18946 
L 529.609332 398.45677 
z
" clip-path="url(#p4529d8256a)" style="fill: none; stroke: #008000; stroke-linejoin: miter"/>
   </g>
   <g id="matplotlib.axis_1">
    <g id="xtick_1">
     <g id="line2d_1">
      <defs>
       <path id="m55913429dd" d="M 0 0 
L 0 3.5 
" style="stroke: #000000; stroke-width: 0.8"/>
      </defs>
      <g>
       <use xlink:href="#m55913429dd" x="152.050521" y="443.4336" style="stroke: #000000; stroke-width: 0.8"/>
      </g>
     </g>
     <g id="text_1">
      <!-- 0.0 -->
      <g transform="translate(144.098959 458.032038) scale(0.1 -0.1)">
       <defs>
        <path id="DejaVuSans-30" d="M 2034 4250 
Q 1547 4250 1301 3770 
Q 1056 3291 1056 2328 
Q 1056 1369 1301 889 
Q 1547 409 2034 409 
Q 2525 409 2770 889 
Q 3016 1369 3016 2328 
Q 3016 3291 2770 3770 
Q 2525 4250 2034 4250 
z
M 2034 4750 
Q 2819 4750 3233 4129 
Q 3647 3509 3647 2328 
Q 3647 1150 3233 529 
Q 2819 -91 2034 -91 
Q 1250 -91 836 529 
Q 422 1150 422 2328 
Q 422 3509 836 4129 
Q 1250 4750 2034 4750 
z
" transform="scale(0.015625)"/>
        <path id="DejaVuSans-2e" d="M 684 794 
L 1344 794 
L 1344 0 
L 684 0 
L 684 794 
z
" transform="scale(0.015625)"/>
       </defs>
       <use xlink:href="#DejaVuSans-30"/>
       <use xlink:href="#DejaVuSans-2e" x="63.623047"/>
       <use xlink:href="#DejaVuSans-30" x="95.410156"/>
      </g>
     </g>
    </g>
    <g id="xtick_2">
     <g id="line2d_2">
      <g>
       <use xlink:href="#m55913429dd" x="211.083697" y="443.4336" style="stroke: #000000; stroke-width: 0.8"/>
      </g>
     </g>
     <g id="text_2">
      <!-- 2.5 -->
      <g transform="translate(203.132134 458.032038) scale(0.1 -0.1)">
       <defs>
        <path id="DejaVuSans-32" d="M 1228 531 
L 3431 531 
L 3431 0 
L 469 0 
L 469 531 
Q 828 903 1448 1529 
Q 2069 2156 2228 2338 
Q 2531 2678 2651 2914 
Q 2772 3150 2772 3378 
Q 2772 3750 2511 3984 
Q 2250 4219 1831 4219 
Q 1534 4219 1204 4116 
Q 875 4013 500 3803 
L 500 4441 
Q 881 4594 1212 4672 
Q 1544 4750 1819 4750 
Q 2544 4750 2975 4387 
Q 3406 4025 3406 3419 
Q 3406 3131 3298 2873 
Q 3191 2616 2906 2266 
Q 2828 2175 2409 1742 
Q 1991 1309 1228 531 
z
" transform="scale(0.015625)"/>
        <path id="DejaVuSans-35" d="M 691 4666 
L 3169 4666 
L 3169 4134 
L 1269 4134 
L 1269 2991 
Q 1406 3038 1543 3061 
Q 1681 3084 1819 3084 
Q 2600 3084 3056 2656 
Q 3513 2228 3513 1497 
Q 3513 744 3044 326 
Q 2575 -91 1722 -91 
Q 1428 -91 1123 -41 
Q 819 9 494 109 
L 494 744 
Q 775 591 1075 516 
Q 1375 441 1709 441 
Q 2250 441 2565 725 
Q 2881 1009 2881 1497 
Q 2881 1984 2565 2268 
Q 2250 2553 1709 2553 
Q 1456 2553 1204 2497 
Q 953 2441 691 2322 
L 691 4666 
z
" transform="scale(0.015625)"/>
       </defs>
       <use xlink:href="#DejaVuSans-32"/>
       <use xlink:href="#DejaVuSans-2e" x="63.623047"/>
       <use xlink:href="#DejaVuSans-35" x="95.410156"/>
      </g>
     </g>
    </g>
    <g id="xtick_3">
     <g id="line2d_3">
      <g>
       <use xlink:href="#m55913429dd" x="270.116872" y="443.4336" style="stroke: #000000; stroke-width: 0.8"/>
      </g>
     </g>
     <g id="text_3">
      <!-- 5.0 -->
      <g transform="translate(262.16531 458.032038) scale(0.1 -0.1)">
       <use xlink:href="#DejaVuSans-35"/>
       <use xlink:href="#DejaVuSans-2e" x="63.623047"/>
       <use xlink:href="#DejaVuSans-30" x="95.410156"/>
      </g>
     </g>
    </g>
    <g id="xtick_4">
     <g id="line2d_4">
      <g>
       <use xlink:href="#m55913429dd" x="329.150047" y="443.4336" style="stroke: #000000; stroke-width: 0.8"/>
      </g>
     </g>
     <g id="text_4">
      <!-- 7.5 -->
      <g transform="translate(321.198485 458.032038) scale(0.1 -0.1)">
       <defs>
        <path id="DejaVuSans-37" d="M 525 4666 
L 3525 4666 
L 3525 4397 
L 1831 0 
L 1172 0 
L 2766 4134 
L 525 4134 
L 525 4666 
z
" transform="scale(0.015625)"/>
       </defs>
       <use xlink:href="#DejaVuSans-37"/>
       <use xlink:href="#DejaVuSans-2e" x="63.623047"/>
       <use xlink:href="#DejaVuSans-35" x="95.410156"/>
      </g>
     </g>
    </g>
    <g id="xtick_5">
     <g id="line2d_5">
      <g>
       <use xlink:href="#m55913429dd" x="388.183223" y="443.4336" style="stroke: #000000; stroke-width: 0.8"/>
      </g>
     </g>
     <g id="text_5">
      <!-- 10.0 -->
      <g transform="translate(377.05041 458.032038) scale(0.1 -0.1)">
       <defs>
        <path id="DejaVuSans-31" d="M 794 531 
L 1825 531 
L 1825 4091 
L 703 3866 
L 703 4441 
L 1819 4666 
L 2450 4666 
L 2450 531 
L 3481 531 
L 3481 0 
L 794 0 
L 794 531 
z
" transform="scale(0.015625)"/>
       </defs>
       <use xlink:href="#DejaVuSans-31"/>
       <use xlink:href="#DejaVuSans-30" x="63.623047"/>
       <use xlink:href="#DejaVuSans-2e" x="127.246094"/>
       <use xlink:href="#DejaVuSans-30" x="159.033203"/>
      </g>
     </g>
    </g>
    <g id="xtick_6">
     <g id="line2d_6">
      <g>
       <use xlink:href="#m55913429dd" x="447.216398" y="443.4336" style="stroke: #000000; stroke-width: 0.8"/>
      </g>
     </g>
     <g id="text_6">
      <!-- 12.5 -->
      <g transform="translate(436.083586 458.032038) scale(0.1 -0.1)">
       <use xlink:href="#DejaVuSans-31"/>
       <use xlink:href="#DejaVuSans-32" x="63.623047"/>
       <use xlink:href="#DejaVuSans-2e" x="127.246094"/>
       <use xlink:href="#DejaVuSans-35" x="159.033203"/>
      </g>
     </g>
    </g>
    <g id="xtick_7">
     <g id="line2d_7">
      <g>
       <use xlink:href="#m55913429dd" x="506.249573" y="443.4336" style="stroke: #000000; stroke-width: 0.8"/>
      </g>
     </g>
     <g id="text_7">
      <!-- 15.0 -->
      <g transform="translate(495.116761 458.032038) scale(0.1 -0.1)">
       <use xlink:href="#DejaVuSans-31"/>
       <use xlink:href="#DejaVuSans-35" x="63.623047"/>
       <use xlink:href="#DejaVuSans-2e" x="127.246094"/>
       <use xlink:href="#DejaVuSans-30" x="159.033203"/>
      </g>
     </g>
    </g>
    <g id="xtick_8">
     <g id="line2d_8">
      <g>
       <use xlink:href="#m55913429dd" x="565.282749" y="443.4336" style="stroke: #000000; stroke-width: 0.8"/>
      </g>
     </g>
     <g id="text_8">
      <!-- 17.5 -->
      <g transform="translate(554.149936 458.032038) scale(0.1 -0.1)">
       <use xlink:href="#DejaVuSans-31"/>
       <use xlink:href="#DejaVuSans-37" x="63.623047"/>
       <use xlink:href="#DejaVuSans-2e" x="127.246094"/>
       <use xlink:href="#DejaVuSans-35" x="159.033203"/>
      </g>
     </g>
    </g>
   </g>
   <g id="matplotlib.axis_2">
    <g id="ytick_1">
     <g id="line2d_9">
      <defs>
       <path id="mf90a020cac" d="M 0 0 
L -3.5 0 
" style="stroke: #000000; stroke-width: 0.8"/>
      </defs>
      <g>
       <use xlink:href="#mf90a020cac" x="106.594976" y="97.770745" style="stroke: #000000; stroke-width: 0.8"/>
      </g>
     </g>
     <g id="text_9">
      <!-- 0 -->
      <g transform="translate(93.232476 101.569964) scale(0.1 -0.1)">
       <use xlink:href="#DejaVuSans-30"/>
      </g>
     </g>
    </g>
    <g id="ytick_2">
     <g id="line2d_10">
      <g>
       <use xlink:href="#mf90a020cac" x="106.594976" y="144.997285" style="stroke: #000000; stroke-width: 0.8"/>
      </g>
     </g>
     <g id="text_10">
      <!-- 2 -->
      <g transform="translate(93.232476 148.796504) scale(0.1 -0.1)">
       <use xlink:href="#DejaVuSans-32"/>
      </g>
     </g>
    </g>
    <g id="ytick_3">
     <g id="line2d_11">
      <g>
       <use xlink:href="#mf90a020cac" x="106.594976" y="192.223826" style="stroke: #000000; stroke-width: 0.8"/>
      </g>
     </g>
     <g id="text_11">
      <!-- 4 -->
      <g transform="translate(93.232476 196.023044) scale(0.1 -0.1)">
       <defs>
        <path id="DejaVuSans-34" d="M 2419 4116 
L 825 1625 
L 2419 1625 
L 2419 4116 
z
M 2253 4666 
L 3047 4666 
L 3047 1625 
L 3713 1625 
L 3713 1100 
L 3047 1100 
L 3047 0 
L 2419 0 
L 2419 1100 
L 313 1100 
L 313 1709 
L 2253 4666 
z
" transform="scale(0.015625)"/>
       </defs>
       <use xlink:href="#DejaVuSans-34"/>
      </g>
     </g>
    </g>
    <g id="ytick_4">
     <g id="line2d_12">
      <g>
       <use xlink:href="#mf90a020cac" x="106.594976" y="239.450366" style="stroke: #000000; stroke-width: 0.8"/>
      </g>
     </g>
     <g id="text_12">
      <!-- 6 -->
      <g transform="translate(93.232476 243.249585) scale(0.1 -0.1)">
       <defs>
        <path id="DejaVuSans-36" d="M 2113 2584 
Q 1688 2584 1439 2293 
Q 1191 2003 1191 1497 
Q 1191 994 1439 701 
Q 1688 409 2113 409 
Q 2538 409 2786 701 
Q 3034 994 3034 1497 
Q 3034 2003 2786 2293 
Q 2538 2584 2113 2584 
z
M 3366 4563 
L 3366 3988 
Q 3128 4100 2886 4159 
Q 2644 4219 2406 4219 
Q 1781 4219 1451 3797 
Q 1122 3375 1075 2522 
Q 1259 2794 1537 2939 
Q 1816 3084 2150 3084 
Q 2853 3084 3261 2657 
Q 3669 2231 3669 1497 
Q 3669 778 3244 343 
Q 2819 -91 2113 -91 
Q 1303 -91 875 529 
Q 447 1150 447 2328 
Q 447 3434 972 4092 
Q 1497 4750 2381 4750 
Q 2619 4750 2861 4703 
Q 3103 4656 3366 4563 
z
" transform="scale(0.015625)"/>
       </defs>
       <use xlink:href="#DejaVuSans-36"/>
      </g>
     </g>
    </g>
    <g id="ytick_5">
     <g id="line2d_13">
      <g>
       <use xlink:href="#mf90a020cac" x="106.594976" y="286.676906" style="stroke: #000000; stroke-width: 0.8"/>
      </g>
     </g>
     <g id="text_13">
      <!-- 8 -->
      <g transform="translate(93.232476 290.476125) scale(0.1 -0.1)">
       <defs>
        <path id="DejaVuSans-38" d="M 2034 2216 
Q 1584 2216 1326 1975 
Q 1069 1734 1069 1313 
Q 1069 891 1326 650 
Q 1584 409 2034 409 
Q 2484 409 2743 651 
Q 3003 894 3003 1313 
Q 3003 1734 2745 1975 
Q 2488 2216 2034 2216 
z
M 1403 2484 
Q 997 2584 770 2862 
Q 544 3141 544 3541 
Q 544 4100 942 4425 
Q 1341 4750 2034 4750 
Q 2731 4750 3128 4425 
Q 3525 4100 3525 3541 
Q 3525 3141 3298 2862 
Q 3072 2584 2669 2484 
Q 3125 2378 3379 2068 
Q 3634 1759 3634 1313 
Q 3634 634 3220 271 
Q 2806 -91 2034 -91 
Q 1263 -91 848 271 
Q 434 634 434 1313 
Q 434 1759 690 2068 
Q 947 2378 1403 2484 
z
M 1172 3481 
Q 1172 3119 1398 2916 
Q 1625 2713 2034 2713 
Q 2441 2713 2670 2916 
Q 2900 3119 2900 3481 
Q 2900 3844 2670 4047 
Q 2441 4250 2034 4250 
Q 1625 4250 1398 4047 
Q 1172 3844 1172 3481 
z
" transform="scale(0.015625)"/>
       </defs>
       <use xlink:href="#DejaVuSans-38"/>
      </g>
     </g>
    </g>
    <g id="ytick_6">
     <g id="line2d_14">
      <g>
       <use xlink:href="#mf90a020cac" x="106.594976" y="333.903446" style="stroke: #000000; stroke-width: 0.8"/>
      </g>
     </g>
     <g id="text_14">
      <!-- 10 -->
      <g transform="translate(86.869976 337.702665) scale(0.1 -0.1)">
       <use xlink:href="#DejaVuSans-31"/>
       <use xlink:href="#DejaVuSans-30" x="63.623047"/>
      </g>
     </g>
    </g>
    <g id="ytick_7">
     <g id="line2d_15">
      <g>
       <use xlink:href="#mf90a020cac" x="106.594976" y="381.129987" style="stroke: #000000; stroke-width: 0.8"/>
      </g>
     </g>
     <g id="text_15">
      <!-- 12 -->
      <g transform="translate(86.869976 384.929205) scale(0.1 -0.1)">
       <use xlink:href="#DejaVuSans-31"/>
       <use xlink:href="#DejaVuSans-32" x="63.623047"/>
      </g>
     </g>
    </g>
    <g id="ytick_8">
     <g id="line2d_16">
      <g>
       <use xlink:href="#mf90a020cac" x="106.594976" y="428.356527" style="stroke: #000000; stroke-width: 0.8"/>
      </g>
     </g>
     <g id="text_16">
      <!-- 14 -->
      <g transform="translate(86.869976 432.155746) scale(0.1 -0.1)">
       <use xlink:href="#DejaVuSans-31"/>
       <use xlink:href="#DejaVuSans-34" x="63.623047"/>
      </g>
     </g>
    </g>
   </g>
   <g id="patch_150">
    <path d="M 106.594976 443.4336 
L 106.594976 59.7888 
" style="fill: none; stroke: #000000; stroke-width: 0.8; stroke-linejoin: miter; stroke-linecap: square"/>
   </g>
   <g id="patch_151">
    <path d="M 587.125024 443.4336 
L 587.125024 59.7888 
" style="fill: none; stroke: #000000; stroke-width: 0.8; stroke-linejoin: miter; stroke-linecap: square"/>
   </g>
   <g id="patch_152">
    <path d="M 106.594976 443.4336 
L 587.125024 443.4336 
" style="fill: none; stroke: #000000; stroke-width: 0.8; stroke-linejoin: miter; stroke-linecap: square"/>
   </g>
   <g id="patch_153">
    <path d="M 106.594976 59.7888 
L 587.125024 59.7888 
" style="fill: none; stroke: #000000; stroke-width: 0.8; stroke-linejoin: miter; stroke-linecap: square"/>
   </g>
   <g id="legend_1">
    <g id="patch_154">
     <path d="M 390.179711 111.823175 
L 580.125024 111.823175 
Q 582.125024 111.823175 582.125024 109.823175 
L 582.125024 66.7888 
Q 582.125024 64.7888 580.125024 64.7888 
L 390.179711 64.7888 
Q 388.179711 64.7888 388.179711 66.7888 
L 388.179711 109.823175 
Q 388.179711 111.823175 390.179711 111.823175 
z
" style="fill: #ffffff; opacity: 0.8; stroke: #cccccc; stroke-linejoin: miter"/>
    </g>
    <g id="patch_155">
     <path d="M 392.179711 76.387237 
L 412.179711 76.387237 
L 412.179711 69.387237 
L 392.179711 69.387237 
z
" style="fill: #ff8c00"/>
    </g>
    <g id="text_17">
     <!-- Original, 16 steps, 87 iterations -->
     <g transform="translate(420.179711 76.387237) scale(0.1 -0.1)">
      <defs>
       <path id="DejaVuSans-4f" d="M 2522 4238 
Q 1834 4238 1429 3725 
Q 1025 3213 1025 2328 
Q 1025 1447 1429 934 
Q 1834 422 2522 422 
Q 3209 422 3611 934 
Q 4013 1447 4013 2328 
Q 4013 3213 3611 3725 
Q 3209 4238 2522 4238 
z
M 2522 4750 
Q 3503 4750 4090 4092 
Q 4678 3434 4678 2328 
Q 4678 1225 4090 567 
Q 3503 -91 2522 -91 
Q 1538 -91 948 565 
Q 359 1222 359 2328 
Q 359 3434 948 4092 
Q 1538 4750 2522 4750 
z
" transform="scale(0.015625)"/>
       <path id="DejaVuSans-72" d="M 2631 2963 
Q 2534 3019 2420 3045 
Q 2306 3072 2169 3072 
Q 1681 3072 1420 2755 
Q 1159 2438 1159 1844 
L 1159 0 
L 581 0 
L 581 3500 
L 1159 3500 
L 1159 2956 
Q 1341 3275 1631 3429 
Q 1922 3584 2338 3584 
Q 2397 3584 2469 3576 
Q 2541 3569 2628 3553 
L 2631 2963 
z
" transform="scale(0.015625)"/>
       <path id="DejaVuSans-69" d="M 603 3500 
L 1178 3500 
L 1178 0 
L 603 0 
L 603 3500 
z
M 603 4863 
L 1178 4863 
L 1178 4134 
L 603 4134 
L 603 4863 
z
" transform="scale(0.015625)"/>
       <path id="DejaVuSans-67" d="M 2906 1791 
Q 2906 2416 2648 2759 
Q 2391 3103 1925 3103 
Q 1463 3103 1205 2759 
Q 947 2416 947 1791 
Q 947 1169 1205 825 
Q 1463 481 1925 481 
Q 2391 481 2648 825 
Q 2906 1169 2906 1791 
z
M 3481 434 
Q 3481 -459 3084 -895 
Q 2688 -1331 1869 -1331 
Q 1566 -1331 1297 -1286 
Q 1028 -1241 775 -1147 
L 775 -588 
Q 1028 -725 1275 -790 
Q 1522 -856 1778 -856 
Q 2344 -856 2625 -561 
Q 2906 -266 2906 331 
L 2906 616 
Q 2728 306 2450 153 
Q 2172 0 1784 0 
Q 1141 0 747 490 
Q 353 981 353 1791 
Q 353 2603 747 3093 
Q 1141 3584 1784 3584 
Q 2172 3584 2450 3431 
Q 2728 3278 2906 2969 
L 2906 3500 
L 3481 3500 
L 3481 434 
z
" transform="scale(0.015625)"/>
       <path id="DejaVuSans-6e" d="M 3513 2113 
L 3513 0 
L 2938 0 
L 2938 2094 
Q 2938 2591 2744 2837 
Q 2550 3084 2163 3084 
Q 1697 3084 1428 2787 
Q 1159 2491 1159 1978 
L 1159 0 
L 581 0 
L 581 3500 
L 1159 3500 
L 1159 2956 
Q 1366 3272 1645 3428 
Q 1925 3584 2291 3584 
Q 2894 3584 3203 3211 
Q 3513 2838 3513 2113 
z
" transform="scale(0.015625)"/>
       <path id="DejaVuSans-61" d="M 2194 1759 
Q 1497 1759 1228 1600 
Q 959 1441 959 1056 
Q 959 750 1161 570 
Q 1363 391 1709 391 
Q 2188 391 2477 730 
Q 2766 1069 2766 1631 
L 2766 1759 
L 2194 1759 
z
M 3341 1997 
L 3341 0 
L 2766 0 
L 2766 531 
Q 2569 213 2275 61 
Q 1981 -91 1556 -91 
Q 1019 -91 701 211 
Q 384 513 384 1019 
Q 384 1609 779 1909 
Q 1175 2209 1959 2209 
L 2766 2209 
L 2766 2266 
Q 2766 2663 2505 2880 
Q 2244 3097 1772 3097 
Q 1472 3097 1187 3025 
Q 903 2953 641 2809 
L 641 3341 
Q 956 3463 1253 3523 
Q 1550 3584 1831 3584 
Q 2591 3584 2966 3190 
Q 3341 2797 3341 1997 
z
" transform="scale(0.015625)"/>
       <path id="DejaVuSans-6c" d="M 603 4863 
L 1178 4863 
L 1178 0 
L 603 0 
L 603 4863 
z
" transform="scale(0.015625)"/>
       <path id="DejaVuSans-2c" d="M 750 794 
L 1409 794 
L 1409 256 
L 897 -744 
L 494 -744 
L 750 256 
L 750 794 
z
" transform="scale(0.015625)"/>
       <path id="DejaVuSans-20" transform="scale(0.015625)"/>
       <path id="DejaVuSans-73" d="M 2834 3397 
L 2834 2853 
Q 2591 2978 2328 3040 
Q 2066 3103 1784 3103 
Q 1356 3103 1142 2972 
Q 928 2841 928 2578 
Q 928 2378 1081 2264 
Q 1234 2150 1697 2047 
L 1894 2003 
Q 2506 1872 2764 1633 
Q 3022 1394 3022 966 
Q 3022 478 2636 193 
Q 2250 -91 1575 -91 
Q 1294 -91 989 -36 
Q 684 19 347 128 
L 347 722 
Q 666 556 975 473 
Q 1284 391 1588 391 
Q 1994 391 2212 530 
Q 2431 669 2431 922 
Q 2431 1156 2273 1281 
Q 2116 1406 1581 1522 
L 1381 1569 
Q 847 1681 609 1914 
Q 372 2147 372 2553 
Q 372 3047 722 3315 
Q 1072 3584 1716 3584 
Q 2034 3584 2315 3537 
Q 2597 3491 2834 3397 
z
" transform="scale(0.015625)"/>
       <path id="DejaVuSans-74" d="M 1172 4494 
L 1172 3500 
L 2356 3500 
L 2356 3053 
L 1172 3053 
L 1172 1153 
Q 1172 725 1289 603 
Q 1406 481 1766 481 
L 2356 481 
L 2356 0 
L 1766 0 
Q 1100 0 847 248 
Q 594 497 594 1153 
L 594 3053 
L 172 3053 
L 172 3500 
L 594 3500 
L 594 4494 
L 1172 4494 
z
" transform="scale(0.015625)"/>
       <path id="DejaVuSans-65" d="M 3597 1894 
L 3597 1613 
L 953 1613 
Q 991 1019 1311 708 
Q 1631 397 2203 397 
Q 2534 397 2845 478 
Q 3156 559 3463 722 
L 3463 178 
Q 3153 47 2828 -22 
Q 2503 -91 2169 -91 
Q 1331 -91 842 396 
Q 353 884 353 1716 
Q 353 2575 817 3079 
Q 1281 3584 2069 3584 
Q 2775 3584 3186 3129 
Q 3597 2675 3597 1894 
z
M 3022 2063 
Q 3016 2534 2758 2815 
Q 2500 3097 2075 3097 
Q 1594 3097 1305 2825 
Q 1016 2553 972 2059 
L 3022 2063 
z
" transform="scale(0.015625)"/>
       <path id="DejaVuSans-70" d="M 1159 525 
L 1159 -1331 
L 581 -1331 
L 581 3500 
L 1159 3500 
L 1159 2969 
Q 1341 3281 1617 3432 
Q 1894 3584 2278 3584 
Q 2916 3584 3314 3078 
Q 3713 2572 3713 1747 
Q 3713 922 3314 415 
Q 2916 -91 2278 -91 
Q 1894 -91 1617 61 
Q 1341 213 1159 525 
z
M 3116 1747 
Q 3116 2381 2855 2742 
Q 2594 3103 2138 3103 
Q 1681 3103 1420 2742 
Q 1159 2381 1159 1747 
Q 1159 1113 1420 752 
Q 1681 391 2138 391 
Q 2594 391 2855 752 
Q 3116 1113 3116 1747 
z
" transform="scale(0.015625)"/>
       <path id="DejaVuSans-6f" d="M 1959 3097 
Q 1497 3097 1228 2736 
Q 959 2375 959 1747 
Q 959 1119 1226 758 
Q 1494 397 1959 397 
Q 2419 397 2687 759 
Q 2956 1122 2956 1747 
Q 2956 2369 2687 2733 
Q 2419 3097 1959 3097 
z
M 1959 3584 
Q 2709 3584 3137 3096 
Q 3566 2609 3566 1747 
Q 3566 888 3137 398 
Q 2709 -91 1959 -91 
Q 1206 -91 779 398 
Q 353 888 353 1747 
Q 353 2609 779 3096 
Q 1206 3584 1959 3584 
z
" transform="scale(0.015625)"/>
      </defs>
      <use xlink:href="#DejaVuSans-4f"/>
      <use xlink:href="#DejaVuSans-72" x="78.710938"/>
      <use xlink:href="#DejaVuSans-69" x="119.824219"/>
      <use xlink:href="#DejaVuSans-67" x="147.607422"/>
      <use xlink:href="#DejaVuSans-69" x="211.083984"/>
      <use xlink:href="#DejaVuSans-6e" x="238.867188"/>
      <use xlink:href="#DejaVuSans-61" x="302.246094"/>
      <use xlink:href="#DejaVuSans-6c" x="363.525391"/>
      <use xlink:href="#DejaVuSans-2c" x="391.308594"/>
      <use xlink:href="#DejaVuSans-20" x="423.095703"/>
      <use xlink:href="#DejaVuSans-31" x="454.882812"/>
      <use xlink:href="#DejaVuSans-36" x="518.505859"/>
      <use xlink:href="#DejaVuSans-20" x="582.128906"/>
      <use xlink:href="#DejaVuSans-73" x="613.916016"/>
      <use xlink:href="#DejaVuSans-74" x="666.015625"/>
      <use xlink:href="#DejaVuSans-65" x="705.224609"/>
      <use xlink:href="#DejaVuSans-70" x="766.748047"/>
      <use xlink:href="#DejaVuSans-73" x="830.224609"/>
      <use xlink:href="#DejaVuSans-2c" x="882.324219"/>
      <use xlink:href="#DejaVuSans-20" x="914.111328"/>
      <use xlink:href="#DejaVuSans-38" x="945.898438"/>
      <use xlink:href="#DejaVuSans-37" x="1009.521484"/>
      <use xlink:href="#DejaVuSans-20" x="1073.144531"/>
      <use xlink:href="#DejaVuSans-69" x="1104.931641"/>
      <use xlink:href="#DejaVuSans-74" x="1132.714844"/>
      <use xlink:href="#DejaVuSans-65" x="1171.923828"/>
      <use xlink:href="#DejaVuSans-72" x="1233.447266"/>
      <use xlink:href="#DejaVuSans-61" x="1274.560547"/>
      <use xlink:href="#DejaVuSans-74" x="1335.839844"/>
      <use xlink:href="#DejaVuSans-69" x="1375.048828"/>
      <use xlink:href="#DejaVuSans-6f" x="1402.832031"/>
      <use xlink:href="#DejaVuSans-6e" x="1464.013672"/>
      <use xlink:href="#DejaVuSans-73" x="1527.392578"/>
     </g>
    </g>
    <g id="patch_156">
     <path d="M 392.179711 91.065362 
L 412.179711 91.065362 
L 412.179711 84.065362 
L 392.179711 84.065362 
z
" style="fill: #00008b"/>
    </g>
    <g id="text_18">
     <!-- A*, 16 steps, 54 iterations -->
     <g transform="translate(420.179711 91.065362) scale(0.1 -0.1)">
      <defs>
       <path id="DejaVuSans-41" d="M 2188 4044 
L 1331 1722 
L 3047 1722 
L 2188 4044 
z
M 1831 4666 
L 2547 4666 
L 4325 0 
L 3669 0 
L 3244 1197 
L 1141 1197 
L 716 0 
L 50 0 
L 1831 4666 
z
" transform="scale(0.015625)"/>
       <path id="DejaVuSans-2a" d="M 3009 3897 
L 1888 3291 
L 3009 2681 
L 2828 2375 
L 1778 3009 
L 1778 1831 
L 1422 1831 
L 1422 3009 
L 372 2375 
L 191 2681 
L 1313 3291 
L 191 3897 
L 372 4206 
L 1422 3572 
L 1422 4750 
L 1778 4750 
L 1778 3572 
L 2828 4206 
L 3009 3897 
z
" transform="scale(0.015625)"/>
      </defs>
      <use xlink:href="#DejaVuSans-41"/>
      <use xlink:href="#DejaVuSans-2a" x="68.408203"/>
      <use xlink:href="#DejaVuSans-2c" x="118.408203"/>
      <use xlink:href="#DejaVuSans-20" x="150.195312"/>
      <use xlink:href="#DejaVuSans-31" x="181.982422"/>
      <use xlink:href="#DejaVuSans-36" x="245.605469"/>
      <use xlink:href="#DejaVuSans-20" x="309.228516"/>
      <use xlink:href="#DejaVuSans-73" x="341.015625"/>
      <use xlink:href="#DejaVuSans-74" x="393.115234"/>
      <use xlink:href="#DejaVuSans-65" x="432.324219"/>
      <use xlink:href="#DejaVuSans-70" x="493.847656"/>
      <use xlink:href="#DejaVuSans-73" x="557.324219"/>
      <use xlink:href="#DejaVuSans-2c" x="609.423828"/>
      <use xlink:href="#DejaVuSans-20" x="641.210938"/>
      <use xlink:href="#DejaVuSans-35" x="672.998047"/>
      <use xlink:href="#DejaVuSans-34" x="736.621094"/>
      <use xlink:href="#DejaVuSans-20" x="800.244141"/>
      <use xlink:href="#DejaVuSans-69" x="832.03125"/>
      <use xlink:href="#DejaVuSans-74" x="859.814453"/>
      <use xlink:href="#DejaVuSans-65" x="899.023438"/>
      <use xlink:href="#DejaVuSans-72" x="960.546875"/>
      <use xlink:href="#DejaVuSans-61" x="1001.660156"/>
      <use xlink:href="#DejaVuSans-74" x="1062.939453"/>
      <use xlink:href="#DejaVuSans-69" x="1102.148438"/>
      <use xlink:href="#DejaVuSans-6f" x="1129.931641"/>
      <use xlink:href="#DejaVuSans-6e" x="1191.113281"/>
      <use xlink:href="#DejaVuSans-73" x="1254.492188"/>
     </g>
    </g>
    <g id="patch_157">
     <path d="M 392.179711 105.743487 
L 412.179711 105.743487 
L 412.179711 98.743487 
L 392.179711 98.743487 
z
" style="fill: #008000"/>
    </g>
    <g id="text_19">
     <!-- Greedy, 29 steps, 38 iterations -->
     <g transform="translate(420.179711 105.743487) scale(0.1 -0.1)">
      <defs>
       <path id="DejaVuSans-47" d="M 3809 666 
L 3809 1919 
L 2778 1919 
L 2778 2438 
L 4434 2438 
L 4434 434 
Q 4069 175 3628 42 
Q 3188 -91 2688 -91 
Q 1594 -91 976 548 
Q 359 1188 359 2328 
Q 359 3472 976 4111 
Q 1594 4750 2688 4750 
Q 3144 4750 3555 4637 
Q 3966 4525 4313 4306 
L 4313 3634 
Q 3963 3931 3569 4081 
Q 3175 4231 2741 4231 
Q 1884 4231 1454 3753 
Q 1025 3275 1025 2328 
Q 1025 1384 1454 906 
Q 1884 428 2741 428 
Q 3075 428 3337 486 
Q 3600 544 3809 666 
z
" transform="scale(0.015625)"/>
       <path id="DejaVuSans-64" d="M 2906 2969 
L 2906 4863 
L 3481 4863 
L 3481 0 
L 2906 0 
L 2906 525 
Q 2725 213 2448 61 
Q 2172 -91 1784 -91 
Q 1150 -91 751 415 
Q 353 922 353 1747 
Q 353 2572 751 3078 
Q 1150 3584 1784 3584 
Q 2172 3584 2448 3432 
Q 2725 3281 2906 2969 
z
M 947 1747 
Q 947 1113 1208 752 
Q 1469 391 1925 391 
Q 2381 391 2643 752 
Q 2906 1113 2906 1747 
Q 2906 2381 2643 2742 
Q 2381 3103 1925 3103 
Q 1469 3103 1208 2742 
Q 947 2381 947 1747 
z
" transform="scale(0.015625)"/>
       <path id="DejaVuSans-79" d="M 2059 -325 
Q 1816 -950 1584 -1140 
Q 1353 -1331 966 -1331 
L 506 -1331 
L 506 -850 
L 844 -850 
Q 1081 -850 1212 -737 
Q 1344 -625 1503 -206 
L 1606 56 
L 191 3500 
L 800 3500 
L 1894 763 
L 2988 3500 
L 3597 3500 
L 2059 -325 
z
" transform="scale(0.015625)"/>
       <path id="DejaVuSans-39" d="M 703 97 
L 703 672 
Q 941 559 1184 500 
Q 1428 441 1663 441 
Q 2288 441 2617 861 
Q 2947 1281 2994 2138 
Q 2813 1869 2534 1725 
Q 2256 1581 1919 1581 
Q 1219 1581 811 2004 
Q 403 2428 403 3163 
Q 403 3881 828 4315 
Q 1253 4750 1959 4750 
Q 2769 4750 3195 4129 
Q 3622 3509 3622 2328 
Q 3622 1225 3098 567 
Q 2575 -91 1691 -91 
Q 1453 -91 1209 -44 
Q 966 3 703 97 
z
M 1959 2075 
Q 2384 2075 2632 2365 
Q 2881 2656 2881 3163 
Q 2881 3666 2632 3958 
Q 2384 4250 1959 4250 
Q 1534 4250 1286 3958 
Q 1038 3666 1038 3163 
Q 1038 2656 1286 2365 
Q 1534 2075 1959 2075 
z
" transform="scale(0.015625)"/>
       <path id="DejaVuSans-33" d="M 2597 2516 
Q 3050 2419 3304 2112 
Q 3559 1806 3559 1356 
Q 3559 666 3084 287 
Q 2609 -91 1734 -91 
Q 1441 -91 1130 -33 
Q 819 25 488 141 
L 488 750 
Q 750 597 1062 519 
Q 1375 441 1716 441 
Q 2309 441 2620 675 
Q 2931 909 2931 1356 
Q 2931 1769 2642 2001 
Q 2353 2234 1838 2234 
L 1294 2234 
L 1294 2753 
L 1863 2753 
Q 2328 2753 2575 2939 
Q 2822 3125 2822 3475 
Q 2822 3834 2567 4026 
Q 2313 4219 1838 4219 
Q 1578 4219 1281 4162 
Q 984 4106 628 3988 
L 628 4550 
Q 988 4650 1302 4700 
Q 1616 4750 1894 4750 
Q 2613 4750 3031 4423 
Q 3450 4097 3450 3541 
Q 3450 3153 3228 2886 
Q 3006 2619 2597 2516 
z
" transform="scale(0.015625)"/>
      </defs>
      <use xlink:href="#DejaVuSans-47"/>
      <use xlink:href="#DejaVuSans-72" x="77.490234"/>
      <use xlink:href="#DejaVuSans-65" x="116.353516"/>
      <use xlink:href="#DejaVuSans-65" x="177.876953"/>
      <use xlink:href="#DejaVuSans-64" x="239.400391"/>
      <use xlink:href="#DejaVuSans-79" x="302.876953"/>
      <use xlink:href="#DejaVuSans-2c" x="362.056641"/>
      <use xlink:href="#DejaVuSans-20" x="393.84375"/>
      <use xlink:href="#DejaVuSans-32" x="425.630859"/>
      <use xlink:href="#DejaVuSans-39" x="489.253906"/>
      <use xlink:href="#DejaVuSans-20" x="552.876953"/>
      <use xlink:href="#DejaVuSans-73" x="584.664062"/>
      <use xlink:href="#DejaVuSans-74" x="636.763672"/>
      <use xlink:href="#DejaVuSans-65" x="675.972656"/>
      <use xlink:href="#DejaVuSans-70" x="737.496094"/>
      <use xlink:href="#DejaVuSans-73" x="800.972656"/>
      <use xlink:href="#DejaVuSans-2c" x="853.072266"/>
      <use xlink:href="#DejaVuSans-20" x="884.859375"/>
      <use xlink:href="#DejaVuSans-33" x="916.646484"/>
      <use xlink:href="#DejaVuSans-38" x="980.269531"/>
      <use xlink:href="#DejaVuSans-20" x="1043.892578"/>
      <use xlink:href="#DejaVuSans-69" x="1075.679688"/>
      <use xlink:href="#DejaVuSans-74" x="1103.462891"/>
      <use xlink:href="#DejaVuSans-65" x="1142.671875"/>
      <use xlink:href="#DejaVuSans-72" x="1204.195312"/>
      <use xlink:href="#DejaVuSans-61" x="1245.308594"/>
      <use xlink:href="#DejaVuSans-74" x="1306.587891"/>
      <use xlink:href="#DejaVuSans-69" x="1345.796875"/>
      <use xlink:href="#DejaVuSans-6f" x="1373.580078"/>
      <use xlink:href="#DejaVuSans-6e" x="1434.761719"/>
      <use xlink:href="#DejaVuSans-73" x="1498.140625"/>
     </g>
    </g>
   </g>
  </g>
 </g>
 <defs>
  <clipPath id="p4529d8256a">
   <rect x="106.594976" y="59.7888" width="480.530047" height="383.6448"/>
  </clipPath>
 </defs>
</svg>
